M48
;Layer_Color=9474304
;FILE_FORMAT=2:5
INCH,LZ
;TYPE=PLATED
T1F00S00C0.01181
%
T01
X005315Y0068898
Y0076772
X0087598Y0061024
X011811Y0044291
X0120079Y0033465
X0132874Y0057087
X0130905Y0115157
X0135827
X0139764Y0126969
X0149606
X0153543Y0115157
X0146653Y0107283
X0080709Y0116142
X0177165Y0093504
X016437Y0074803
X0165354Y0048228
X0188976Y0051181
X0194882Y0057087
X0204724Y0056102
X0200954Y0021117
X0181102Y0030512
X0223425
X0222441Y0143701
X0180118Y0148622
X0209646Y0159449
M30
